<svg width="173" height="30" viewBox="0 0 173 30" fill="none" xmlns="http://www.w3.org/2000/svg">
<path fill-rule="evenodd" clip-rule="evenodd" d="M24.0563 15.0711C21.5305 15.7612 20.2374 15.5099 19.095 15.0644C19.0113 15.8148 18.3748 16.401 17.6009 16.401C16.7701 16.401 16.1001 15.7277 16.1001 14.9002C16.1001 14.592 16.1939 14.3073 16.3514 14.0694C15.2693 13.8483 13.8557 13.8148 11.715 14.2436L7.68164 17.6305C8.74023 18.5282 9.63133 19.6438 10.2477 20.7091C10.8675 21.7811 11.3867 23.1211 11.6346 24.4912L31.165 17.3692L31.3861 17.329C31.4799 17.3122 31.5703 17.2821 31.6541 17.2352C31.6909 17.2151 31.7244 17.1916 31.7546 17.1648C32.0393 16.9337 32.2035 16.5049 32.2973 16.0426C30.284 15.1381 28.1266 13.9589 24.0563 15.0711ZM22.0095 18.7125C21.5774 18.7125 21.2256 18.3607 21.2256 17.9286C21.2256 17.4965 21.5774 17.1447 22.0095 17.1447C22.4417 17.1447 22.7934 17.4965 22.7934 17.9286C22.7934 18.3641 22.4417 18.7125 22.0095 18.7125Z" fill="#E9A60A"/>
<path d="M21.8922 14.0392C22.7655 14.0392 23.4734 13.3313 23.4734 12.458C23.4734 11.5848 22.7655 10.8768 21.8922 10.8768C21.019 10.8768 20.311 11.5848 20.311 12.458C20.311 13.3313 21.019 14.0392 21.8922 14.0392Z" fill="#E9A60A"/>
<path fill-rule="evenodd" clip-rule="evenodd" d="M24.6559 10.0661C25.1618 10.0661 25.5738 9.65744 25.5738 9.14824C25.5738 8.64239 25.1651 8.23035 24.6559 8.23035C24.1501 8.23035 23.738 8.63904 23.738 9.14824C23.738 9.65409 24.1467 10.0661 24.6559 10.0661Z" fill="#E9A60A"/>
<path fill-rule="evenodd" clip-rule="evenodd" d="M33.912 7.13497C33.9019 7.11152 33.8885 7.08807 33.8751 7.06462C32.3476 4.41814 30.3342 2.3646 28.3175 1.17871C26.1065 -0.121086 23.8453 -0.405835 22.0598 0.625959C21.8253 0.759958 21.6109 0.914058 21.4099 1.07821L21.4132 1.08156L21.4099 1.08491C21.229 1.23566 21.0648 1.39645 20.9174 1.56395L1.56458 17.8147C0.512689 18.5115 -0.00990772 19.7778 0.000142219 21.2987C0.0101922 22.6789 0.46244 24.3036 1.35018 25.8413H1.35353C2.24463 27.3823 3.42382 28.5849 4.60637 29.2783C5.79561 29.9751 7.0217 30.1962 8.0803 29.8143C8.087 29.811 8.0937 29.811 8.1004 29.8076L14.8573 27.3421C15.5206 27.7507 18.9577 29.8277 19.9828 29.61C20.4417 29.5128 23.306 28.6184 25.46 27.811C26.9239 27.2617 28.1567 26.6687 28.4582 26.1796C28.8569 25.5364 28.9138 23.4996 28.9105 22.2199L32.1667 21.034C32.3911 20.9871 32.6122 20.9268 32.8266 20.8464C33.041 20.7694 33.2588 20.6689 33.4664 20.555C33.4932 20.5416 33.52 20.5282 33.5435 20.5148C35.329 19.483 36.2101 17.3826 36.19 14.8198C36.1766 12.505 35.4128 9.76136 33.912 7.13497ZM3.34007 24.6989V24.6956C2.65333 23.503 2.30158 22.2903 2.29488 21.2953C2.28818 20.5181 2.48248 19.9252 2.87108 19.7007V19.6974C3.25967 19.4763 3.86937 19.6069 4.53602 19.9989C5.39696 20.5047 6.27466 21.4159 6.96475 22.6085H6.9681C7.65485 23.8011 8.00325 25.0138 8.00995 26.0121C8.01665 26.7893 7.82235 27.3823 7.43375 27.6101C7.04515 27.8311 6.43545 27.7005 5.76881 27.3086C4.90451 26.796 4.02682 25.8882 3.34007 24.6989ZM26.5085 24.9803C26.5018 24.9904 25.7045 25.2718 24.6526 25.6671C22.5958 26.4409 19.9225 27.2818 19.5104 27.3689C19.3798 27.3957 18.4686 26.8731 17.6076 26.3505L26.6325 23.0608C26.6291 23.9351 26.6023 24.8262 26.5085 24.9803ZM32.3945 18.5283L32.3476 18.5551C32.2538 18.6053 32.1499 18.6522 32.0427 18.6891C31.9154 18.736 31.7814 18.7728 31.6474 18.7963C31.5838 18.8063 31.5235 18.8231 31.4632 18.8465L10.2779 26.5749C10.2946 26.3873 10.3013 26.193 10.3013 25.9954C10.2913 24.6185 9.83904 22.9971 8.95129 21.4561V21.4528C8.06355 19.9151 6.88435 18.7125 5.69511 18.0157C5.53096 17.9186 5.37016 17.8348 5.20601 17.7578L22.4584 3.26909C22.5187 3.21884 22.5723 3.16189 22.6226 3.10159C22.7097 3.0011 22.7968 2.914 22.8839 2.8403L22.8872 2.84365C22.9911 2.75655 23.0983 2.6795 23.2122 2.61585C24.2272 2.0296 25.661 2.28085 27.1584 3.15854C28.8502 4.15349 30.5587 5.91558 31.8853 8.21702L31.9188 8.27396C33.2219 10.552 33.8852 12.8902 33.8986 14.8366C33.912 16.5719 33.4128 17.942 32.3945 18.5283Z" fill="#18191B"/>
<path fill-rule="evenodd" clip-rule="evenodd" d="M6.57627 22.8297C5.94983 21.7443 5.05538 21.0039 4.27484 20.8297C3.99009 21.56 4.16429 22.7158 4.79743 23.8112C5.44398 24.9334 6.38867 25.6704 7.17927 25.7609C7.38697 24.9971 7.18597 23.8882 6.57627 22.8297Z" fill="#18191B"/>
<path d="M45.1285 22H51.0028C53.8983 22 55.5603 20.4531 55.5603 18.3374C55.5603 16.4453 54.186 15.2564 52.6008 15.1861V15.0582C54.039 14.7578 55.0489 13.7159 55.0489 12.2202C55.0489 10.245 53.5276 8.90909 50.5873 8.90909H45.1285V22ZM48.2925 19.4496V16.3303H50.306C51.5141 16.3303 52.2556 16.9695 52.2556 17.973C52.2556 18.8999 51.6164 19.4496 50.2485 19.4496H48.2925ZM48.2925 14.2912V11.4212H50.0951C51.1498 11.4212 51.8209 11.9645 51.8209 12.8338C51.8209 13.7543 51.0795 14.2912 50.0439 14.2912H48.2925ZM61.6711 22.1854C64.2471 22.1854 65.941 20.9389 66.2989 19.0085L63.4289 18.9254C63.186 19.5774 62.5468 19.929 61.7286 19.929C60.5269 19.929 59.7854 19.13 59.7854 17.9283V17.8452H66.3309V17.0653C66.3309 13.831 64.3621 12.054 61.5752 12.054C58.6093 12.054 56.7045 14.0866 56.7045 17.1293C56.7045 20.2741 58.5837 22.1854 61.6711 22.1854ZM59.7854 16.0298C59.8302 15.0518 60.6036 14.3104 61.6391 14.3104C62.6682 14.3104 63.4097 15.0263 63.4225 16.0298H59.7854ZM72.5168 22.1854C75.0928 22.1854 76.7867 20.9389 77.1446 19.0085L74.2746 18.9254C74.0317 19.5774 73.3925 19.929 72.5743 19.929C71.3726 19.929 70.6311 19.13 70.6311 17.9283V17.8452H77.1766V17.0653C77.1766 13.831 75.2078 12.054 72.4209 12.054C69.455 12.054 67.5502 14.0866 67.5502 17.1293C67.5502 20.2741 69.4294 22.1854 72.5168 22.1854ZM70.6311 16.0298C70.6759 15.0518 71.4493 14.3104 72.4848 14.3104C73.5139 14.3104 74.2554 15.0263 74.2682 16.0298H70.6311ZM78.773 22H81.8987V16.669C81.8987 15.4993 82.7297 14.7131 83.8483 14.7131C84.219 14.7131 84.7751 14.777 85.0756 14.8793V12.1626C84.8135 12.0923 84.4875 12.0476 84.1998 12.0476C83.126 12.0476 82.2694 12.674 81.9115 13.9716H81.8092V12.1818H78.773V22ZM86.7966 22H91.8144C94.857 22 96.2313 20.4851 96.2313 18.478C96.2313 16.4517 94.8122 15.3075 93.5146 15.2372V15.1094C94.7164 14.8026 95.7199 13.9844 95.7199 12.348C95.7199 10.4112 94.3776 8.90909 91.5906 8.90909H86.7966V22ZM88.7718 20.3061V16.1129H91.6929C93.2781 16.1129 94.2689 17.1357 94.2689 18.3821C94.2689 19.4815 93.521 20.3061 91.6226 20.3061H88.7718ZM88.7718 14.5724V10.5902H91.4692C93.0352 10.5902 93.7831 11.4148 93.7831 12.5014C93.7831 13.767 92.7476 14.5724 91.4181 14.5724H88.7718ZM98.4205 22H100.332V16.0043C100.332 14.7195 101.323 13.7926 102.678 13.7926C103.074 13.7926 103.521 13.8629 103.675 13.9077V12.0795C103.483 12.054 103.106 12.0348 102.863 12.0348C101.712 12.0348 100.728 12.6868 100.37 13.7415H100.268V12.1818H98.4205V22ZM109.113 22.1982C111.881 22.1982 113.69 20.1719 113.69 17.1357C113.69 14.0803 111.881 12.054 109.113 12.054C106.345 12.054 104.536 14.0803 104.536 17.1357C104.536 20.1719 106.345 22.1982 109.113 22.1982ZM109.119 20.5938C107.31 20.5938 106.467 19.0149 106.467 17.1293C106.467 15.25 107.31 13.652 109.119 13.652C110.915 13.652 111.759 15.25 111.759 17.1293C111.759 19.0149 110.915 20.5938 109.119 20.5938ZM118.68 22.2173C120.304 22.2173 121.218 21.3928 121.582 20.6577H121.659V22H123.525V15.4801C123.525 12.6229 121.275 12.054 119.716 12.054C117.939 12.054 116.302 12.7699 115.663 14.5597L117.459 14.9688C117.741 14.272 118.456 13.6009 119.741 13.6009C120.975 13.6009 121.608 14.2464 121.608 15.3587V15.4034C121.608 16.1001 120.892 16.0874 119.128 16.2919C117.267 16.5092 115.363 16.995 115.363 19.2259C115.363 21.1562 116.814 22.2173 118.68 22.2173ZM119.096 20.6832C118.015 20.6832 117.236 20.1974 117.236 19.2514C117.236 18.2287 118.143 17.8643 119.249 17.7173C119.869 17.6342 121.339 17.468 121.614 17.1932V18.4588C121.614 19.6222 120.687 20.6832 119.096 20.6832ZM129.746 22.1918C131.536 22.1918 132.239 21.0987 132.584 20.4723H132.744V22H134.611V8.90909H132.699V13.7734H132.584C132.239 13.1662 131.587 12.054 129.759 12.054C127.388 12.054 125.643 13.9268 125.643 17.1101C125.643 20.2869 127.362 22.1918 129.746 22.1918ZM130.168 20.5618C128.462 20.5618 127.573 19.0597 127.573 17.0909C127.573 15.1413 128.442 13.6776 130.168 13.6776C131.837 13.6776 132.731 15.0391 132.731 17.0909C132.731 19.1555 131.817 20.5618 130.168 20.5618ZM141.474 22.1982C143.794 22.1982 145.297 20.8047 145.508 18.8935H143.647C143.405 19.9545 142.58 20.581 141.487 20.581C139.87 20.581 138.828 19.2322 138.828 17.0909C138.828 14.9879 139.889 13.6648 141.487 13.6648C142.701 13.6648 143.443 14.4318 143.647 15.3523H145.508C145.303 13.3707 143.686 12.054 141.455 12.054C138.687 12.054 136.897 14.1378 136.897 17.1357C136.897 20.0952 138.623 22.1982 141.474 22.1982ZM150.409 22.2173C152.032 22.2173 152.946 21.3928 153.311 20.6577H153.387V22H155.254V15.4801C155.254 12.6229 153.004 12.054 151.444 12.054C149.667 12.054 148.031 12.7699 147.392 14.5597L149.188 14.9688C149.469 14.272 150.185 13.6009 151.47 13.6009C152.703 13.6009 153.336 14.2464 153.336 15.3587V15.4034C153.336 16.1001 152.62 16.0874 150.856 16.2919C148.996 16.5092 147.091 16.995 147.091 19.2259C147.091 21.1562 148.542 22.2173 150.409 22.2173ZM150.824 20.6832C149.744 20.6832 148.964 20.1974 148.964 19.2514C148.964 18.2287 149.872 17.8643 150.978 17.7173C151.598 17.6342 153.068 17.468 153.343 17.1932V18.4588C153.343 19.6222 152.416 20.6832 150.824 20.6832ZM165.157 14.5788C164.76 13.0511 163.565 12.054 161.443 12.054C159.225 12.054 157.652 13.2237 157.652 14.9624C157.652 16.3558 158.496 17.2827 160.337 17.6918L161.999 18.0561C162.945 18.267 163.386 18.6889 163.386 19.3026C163.386 20.0632 162.574 20.6577 161.321 20.6577C160.177 20.6577 159.442 20.1655 159.212 19.2003L157.365 19.4815C157.684 21.2202 159.129 22.1982 161.334 22.1982C163.706 22.1982 165.348 20.9389 165.348 19.1619C165.348 17.7749 164.466 16.9183 162.664 16.5028L161.104 16.1449C160.024 15.8892 159.557 15.5249 159.564 14.8601C159.557 14.1058 160.375 13.5689 161.462 13.5689C162.651 13.5689 163.201 14.2273 163.424 14.8857L165.157 14.5788ZM172.033 12.1818H170.019V9.82955H168.108V12.1818H166.67V13.7159H168.108V19.5135C168.102 21.2969 169.463 22.1598 170.972 22.1278C171.579 22.1214 171.988 22.0064 172.212 21.9233L171.867 20.3445C171.739 20.37 171.502 20.4276 171.196 20.4276C170.576 20.4276 170.019 20.223 170.019 19.1172V13.7159H172.033V12.1818Z" fill="#18191B"/>
</svg>
